<svg xmlns="http://www.w3.org/2000/svg" version="1.2" overflow="visible" preserveAspectRatio="none" viewBox="0 0 69.119720458984 18.64665222168" width="69.119720458984" height="18.64665222168"><g transform="translate(1, 1)"><defs/><g style="transform: translate(251.27px, -180.608px);"><path d="M-184.14979553223 193.72502572197 C-184.59622410366 194.1714542934 -187.72121555305 194.90172198642 -187.72121555305 194.45529341499 C-187.72121555305 194.00886484357 -189.06050981794 188.81431143625 -189.06050981794 188.81431143625 C-189.06050981794 188.81431143625 -192.63193838937 192.83216857911 -192.63193838937 192.38574000768 C-192.63193838937 191.93931143625 -194.86408124651 184.7964542934 -194.86408124651 184.7964542934 C-194.86408124651 184.7964542934 -201.11408124651 193.27859715054 -201.11408124651 193.27859715054 C-201.11408124651 193.27859715054 -204.23908124651 188.81431143625 -204.23908124651 189.26074000768 C-204.23908124651 189.70716857911 -210.48908124651 190.60002572197 -210.48908124651 190.60002572197 C-210.48908124651 190.60002572197 -214.06050981794 193.72502572197 -214.06050981794 193.72502572197 C-214.06050981794 193.72502572197 -217.18550981794 188.81431143625 -217.18550981794 188.81431143625 C-217.18550981794 188.81431143625 -222.98908124651 191.49288286483 -222.98908124651 191.49288286483 C-222.98908124651 191.49288286483 -226.11408124651 186.13574000768 -226.11408124651 186.13574000768 C-226.11408124651 186.13574000768 -229.68550981794 191.93931143625 -229.68550981794 191.93931143625 C-229.68550981794 191.93931143625 -229.74671936035 191.66387939453 -229.74671936035 191.66387939453 C-229.74671936035 191.66387939453 -232.2035369873 180.60816955567 -232.2035369873 180.60816955567 C-232.2035369873 180.60816955567 -237.21257890777 190.43052561313 -237.21257890777 190.43052561313 C-237.21257890777 190.43052561313 -240.41543443347 184.40244862219 -240.41543443347 184.40244862219 C-240.41543443347 184.40244862219 -243.97414474407 181.76179496297 -243.79620880101 181.76179496297 C-243.61827285795 181.76179496297 -247.53287215589 180.84372976098 -247.53287215589 181.02166570404 C-247.53287215589 181.1996016471 -251.26952342046 197.25481800641 -251.26952342046 197.25481800641" style="stroke: rgb(132, 247, 102); stroke-width: 1; stroke-linecap: round; stroke-linejoin: miter; fill: none;" vector-effect="non-scaling-stroke"/><path d="M-184.14979553223 193.72502572197 C-184.59622410366 194.1714542934 -187.72121555305 194.90172198642 -187.72121555305 194.45529341499 C-187.72121555305 194.00886484357 -189.06050981794 188.81431143625 -189.06050981794 188.81431143625 C-189.06050981794 188.81431143625 -192.63193838937 192.83216857911 -192.63193838937 192.38574000768 C-192.63193838937 191.93931143625 -194.86408124651 184.7964542934 -194.86408124651 184.7964542934 C-194.86408124651 184.7964542934 -201.11408124651 193.27859715054 -201.11408124651 193.27859715054 C-201.11408124651 193.27859715054 -204.23908124651 188.81431143625 -204.23908124651 189.26074000768 C-204.23908124651 189.70716857911 -210.48908124651 190.60002572197 -210.48908124651 190.60002572197 C-210.48908124651 190.60002572197 -214.06050981794 193.72502572197 -214.06050981794 193.72502572197 C-214.06050981794 193.72502572197 -217.18550981794 188.81431143625 -217.18550981794 188.81431143625 C-217.18550981794 188.81431143625 -222.98908124651 191.49288286483 -222.98908124651 191.49288286483 C-222.98908124651 191.49288286483 -226.11408124651 186.13574000768 -226.11408124651 186.13574000768 C-226.11408124651 186.13574000768 -229.68550981794 191.93931143625 -229.68550981794 191.93931143625 C-229.68550981794 191.93931143625 -229.74671936035 191.66387939453 -229.74671936035 191.66387939453 C-229.74671936035 191.66387939453 -232.2035369873 180.60816955567 -232.2035369873 180.60816955567 C-232.2035369873 180.60816955567 -237.21257890777 190.43052561313 -237.21257890777 190.43052561313 C-237.21257890777 190.43052561313 -240.41543443347 184.40244862219 -240.41543443347 184.40244862219 C-240.41543443347 184.40244862219 -243.97414474407 181.76179496297 -243.79620880101 181.76179496297 C-243.61827285795 181.76179496297 -247.53287215589 180.84372976098 -247.53287215589 181.02166570404 C-247.53287215589 181.1996016471 -251.26952342046 197.25481800641 -251.26952342046 197.25481800641" fill="none" stroke="transparent" stroke-width="8" vector-effect="non-scaling-stroke"/></g></g></svg>