<svg xmlns="http://www.w3.org/2000/svg" version="1.2" overflow="visible" preserveAspectRatio="none" viewBox="0 0 69.119720458984 18.174697875977" width="69.119720458984" height="18.174697875977"><g transform="translate(1, 1)"><defs/><g style="transform: translate(251.27px, -180.608px);"><path d="M-251.26950985894 188.22782574566 C-251.26950985894 188.22782574566 -247.53287215589 181.1996016471 -247.53287215589 181.02166570404 C-247.53287215589 180.84372976098 -243.61827285795 181.76179496297 -243.79620880101 181.76179496297 C-243.97414474407 181.76179496297 -240.41543443347 184.4024486222 -240.41543443347 184.4024486222 C-240.41543443347 184.4024486222 -237.21257890777 190.43052561314 -237.21257890777 190.43052561314 C-237.21257890777 190.43052561314 -232.2035369873 180.60816955567 -232.2035369873 180.60816955567 C-232.2035369873 180.60816955567 -229.68550981794 191.93931143626 -229.68550981794 191.93931143626 C-229.68550981794 191.93931143626 -226.11408124651 186.13574000769 -226.11408124651 186.13574000769 C-226.11408124651 186.13574000769 -222.98908124651 191.49288286484 -222.98908124651 191.49288286484 C-222.98908124651 191.49288286484 -217.18550981794 188.81431143626 -217.18550981794 188.81431143626 C-217.18550981794 188.81431143626 -214.06050981794 193.72502572198 -214.06050981794 193.72502572198 C-214.06050981794 193.72502572198 -210.48908124651 190.60002572198 -210.48908124651 190.60002572198 C-210.48908124651 190.60002572198 -204.23908124651 189.70716857912 -204.23908124651 189.26074000769 C-204.23908124651 188.81431143626 -201.11408124651 193.27859715055 -201.11408124651 193.27859715055 C-201.11408124651 193.27859715055 -194.86408124651 184.7964542934 -194.86408124651 184.7964542934 C-194.86408124651 184.7964542934 -192.63193838937 191.93931143626 -192.63193838937 192.38574000769 C-192.63193838937 192.83216857912 -189.06050981794 188.81431143626 -189.06050981794 188.81431143626 C-189.06050981794 188.81431143626 -187.72121555305 194.00886484358 -187.72121555305 194.455293415 C-187.72121555305 194.90172198643 -184.59622410366 197.17145429341 -184.14979553223 196.72502572198" style="stroke: rgb(255, 105, 57); stroke-width: 1; stroke-linecap: round; stroke-linejoin: miter; fill: none;" vector-effect="non-scaling-stroke"/><path d="M-251.26950985894 188.22782574566 C-251.26950985894 188.22782574566 -247.53287215589 181.1996016471 -247.53287215589 181.02166570404 C-247.53287215589 180.84372976098 -243.61827285795 181.76179496297 -243.79620880101 181.76179496297 C-243.97414474407 181.76179496297 -240.41543443347 184.4024486222 -240.41543443347 184.4024486222 C-240.41543443347 184.4024486222 -237.21257890777 190.43052561314 -237.21257890777 190.43052561314 C-237.21257890777 190.43052561314 -232.2035369873 180.60816955567 -232.2035369873 180.60816955567 C-232.2035369873 180.60816955567 -229.68550981794 191.93931143626 -229.68550981794 191.93931143626 C-229.68550981794 191.93931143626 -226.11408124651 186.13574000769 -226.11408124651 186.13574000769 C-226.11408124651 186.13574000769 -222.98908124651 191.49288286484 -222.98908124651 191.49288286484 C-222.98908124651 191.49288286484 -217.18550981794 188.81431143626 -217.18550981794 188.81431143626 C-217.18550981794 188.81431143626 -214.06050981794 193.72502572198 -214.06050981794 193.72502572198 C-214.06050981794 193.72502572198 -210.48908124651 190.60002572198 -210.48908124651 190.60002572198 C-210.48908124651 190.60002572198 -204.23908124651 189.70716857912 -204.23908124651 189.26074000769 C-204.23908124651 188.81431143626 -201.11408124651 193.27859715055 -201.11408124651 193.27859715055 C-201.11408124651 193.27859715055 -194.86408124651 184.7964542934 -194.86408124651 184.7964542934 C-194.86408124651 184.7964542934 -192.63193838937 191.93931143626 -192.63193838937 192.38574000769 C-192.63193838937 192.83216857912 -189.06050981794 188.81431143626 -189.06050981794 188.81431143626 C-189.06050981794 188.81431143626 -187.72121555305 194.00886484358 -187.72121555305 194.455293415 C-187.72121555305 194.90172198643 -184.59622410366 197.17145429341 -184.14979553223 196.72502572198" fill="none" stroke="transparent" stroke-width="8" vector-effect="non-scaling-stroke"/></g></g></svg>