<svg version="1.2" overflow="visible" preserveAspectRatio="none" viewBox="0 0 71 70" xmlns:xlink="http://www.w3.org/1999/xlink" xmlns="http://www.w3.org/2000/svg" height="41.391304347826" width="42"><g transform="translate(1, 1)"><desc>Created with Sketch.</desc><defs/><g fill-rule="evenodd" fill="none" stroke-width="1" stroke="none" id="Website_1536150881630">
        <g fill-rule="nonzero" transform="translate(-677.000000, -120.000000)" id="exchange_1536150881630">
            <g transform="translate(677.000000, 122.000000)" id="pop-exchange-light_1536150881630">
                <circle r="22" cy="32" cx="34" opacity="0.1" fill="#5CA0F6" id="Oval-4_1536150881630" vector-effect="non-scaling-stroke"/>
                <path fill="#FFFFFF" id="Shape_1536150881630" d="M40.7209301,18.3745457 L31.306686,18.3745457 L31.306686,55.2008534 L37.3982557,55.2008534 L37.3982557,44.4021617 L40.7209301,44.4021617 C44.8498204,44.4021617 48.1969474,41.0550347 48.1969474,36.9261443 L48.1969474,25.850563 C48.1969474,21.7216726 44.8498204,18.3745457 40.7209301,18.3745457 Z M42.1053777,36.9261443 C42.1053777,37.6907536 41.4855394,38.310592 40.7209301,38.310592 L37.3982557,38.310592 L37.3982557,24.4661154 L40.7209301,24.4661154 C41.4855394,24.4661154 42.1053777,25.0859537 42.1053777,25.850563 L42.1053777,36.9261443 Z" vector-effect="non-scaling-stroke"/>
                <circle r="4.70712205" cy="10.8985283" cx="34.3524708" fill="#5CA0F6" id="Oval_1536150881630" vector-effect="non-scaling-stroke"/>
                <path fill="#5CA0F6" id="Shape_1536150881630" d="M23,44.4021617 L29.0915697,44.4021617 L29.0915697,18.6514352 L28.5377906,18.6514352 C25.4793533,18.6514352 23,21.1307885 23,24.1892258 L23,44.4021617 Z" vector-effect="non-scaling-stroke"/>
                <path fill="#FFFFFF" id="Oval-4-Copy-2_1536150881630" d="M5.28999616,14.7284503 C5.71768956,14.0189647 6.63955531,13.790527 7.34904093,14.2182204 C8.05852656,14.6459138 8.2869643,15.5677795 7.85927089,16.2772651 C5.02145122,20.984825 3.5,26.3789779 3.5,32 C3.5,48.8446849 17.1553151,62.5 34,62.5 C37.616114,62.5 41.1437501,61.8711679 44.4671232,60.6569444 C45.2452423,60.3726517 46.1064971,60.7729771 46.3907897,61.5510962 C46.6750823,62.3292152 46.2747569,63.19047 45.4966379,63.4747626 C41.8445951,64.8090685 37.9685923,65.5 34,65.5 C15.4984609,65.5 0.5,50.5015391 0.5,32 C0.5,25.8292812 2.1723114,19.9002686 5.28999616,14.7284503 Z M64.2609576,46.3883586 C63.9047299,47.1362846 63.0096365,47.4538189 62.2617105,47.0975913 C61.5137844,46.7413637 61.1962501,45.8462703 61.5524777,45.0983442 C63.4841516,41.0426532 64.5,36.5949553 64.5,32 C64.5,15.1553151 50.8446849,1.5 34,1.5 C30.9370811,1.5 27.9364636,1.9510746 25.0671901,2.82856097 C24.2749815,3.07083563 23.4363671,2.62502608 23.1940924,1.83281747 C22.9518178,1.04060885 23.3976273,0.201994461 24.1898359,-0.0402802029 C27.3426612,-1.00448288 30.6389171,-1.5 34,-1.5 C52.5015391,-1.5 67.5,13.4984609 67.5,32 C67.5,37.0436711 66.3835561,41.9318073 64.2609576,46.3883586 Z" vector-effect="non-scaling-stroke"/>
                <path transform="translate(61.581474, 48.372250) rotate(-155.000000) translate(-61.581474, -48.372250)" fill="#FFFFFF" id="Triangle-3_1536150881630" d="M62.2023649,45.1364236 L67.5515311,51.7200128 C67.6908377,51.8914672 67.6647769,52.1433888 67.4933225,52.2826954 C67.4220222,52.3406269 67.3329538,52.3722498 67.2410855,52.3722498 L55.9218619,52.3722498 C55.700948,52.3722498 55.5218619,52.1931637 55.5218619,51.9722498 C55.5218619,51.8803815 55.5534848,51.7913131 55.6114163,51.7200128 L60.9605825,45.1364236 C61.2391958,44.7935149 61.743039,44.7413932 62.0859478,45.0200065 C62.1286539,45.0547053 62.1676661,45.0937175 62.2023649,45.1364236 Z" vector-effect="non-scaling-stroke"/>
                <path transform="translate(8.500000, 12.000000) scale(-1, -1) rotate(-155.000000) translate(-8.500000, -12.000000)" fill="#FFFFFF" id="Triangle-3-Copy_1536150881630" d="M9.1208912,8.76417378 L14.4700574,15.3477629 C14.6093641,15.5192173 14.5833032,15.7711389 14.4118488,15.9104456 C14.3405486,15.9683771 14.2514801,16 14.1596118,16 L2.8403882,16 C2.6194743,16 2.4403882,15.8209139 2.4403882,15.6 C2.4403882,15.5081317 2.47201112,15.4190632 2.5299426,15.3477629 L7.8791088,8.76417378 C8.15772215,8.42126504 8.66156536,8.36914333 9.0044741,8.64775668 C9.04718023,8.68245542 9.08619247,8.72146765 9.1208912,8.76417378 Z" vector-effect="non-scaling-stroke"/>
            </g>
        </g>
    </g></g></svg>