<?xml version="1.0" encoding="UTF-8"?>
<svg width="30px" height="30px" viewBox="0 0 30 30" version="1.1" xmlns="http://www.w3.org/2000/svg" xmlns:xlink="http://www.w3.org/1999/xlink">
    <!-- Generator: Sketch 42 (36781) - http://www.bohemiancoding.com/sketch -->
    <title>Group 9</title>
    <desc>Created with Sketch.</desc>
    <defs/>
    <g id="Page-1" stroke="none" stroke-width="1" fill="none" fill-rule="evenodd">
        <g id="Github-integration-2.0" transform="translate(-205.000000, -1025.000000)">
            <rect id="white-bg" fill="#FFFFFF" x="0" y="-50" width="1440" height="3568"/>
            <g id="Screen-2" transform="translate(204.000000, 891.000000)" fill="#37a000">
                <g id="Text">
                    <g id="Group-9" transform="translate(1.000000, 134.000000)">
                        <ellipse id="Oval-Copy-4" fill-opacity="0.2" cx="15" cy="15" rx="15" ry="15"/>
                        <g id="Check" transform="translate(9.000000, 10.000000)">
                            <g id="ui-16px-1_check">
                                <path d="M11.6130625,0.244166667 L4.0625,7.98833333 L1.3869375,5.24416667 C1.06925,4.91833333 0.55575,4.91833333 0.2380625,5.24416667 C-0.079625,5.57 -0.079625,6.09666667 0.2380625,6.4225 L3.4880625,9.75583333 C3.6465,9.91833333 3.8545,10 4.0625,10 C4.2705,10 4.4785,9.91833333 4.6369375,9.75583333 L12.7619375,1.4225 C13.079625,1.09666667 13.079625,0.57 12.7619375,0.244166667 C12.44425,-0.0816666667 11.93075,-0.0816666667 11.6130625,0.244166667 Z" id="Shape" fill-rule="nonzero"/>
                            </g>
                        </g>
                    </g>
                </g>
            </g>
        </g>
    </g>
</svg>